#define bar_width 5
#define bar_height 5
static unsigned char bar_bits[] = {
   0x00, 0x0f, 0x0f, 0x0f, 0x00 };
