#define bar_width 10
#define bar_height 10
static unsigned char bar_bits[] = {
   0x00, 0x00, 0x10, 0x00, 0x10, 0x00, 0x00, 0x00, 0x10, 0x00, 0x10, 0x00,
   0x00, 0x00, 0x10, 0x00, 0x10, 0x00, 0x00, 0x00 };
