#define battery1_width 10
#define battery1_height 10
static unsigned char battery1_bits[] = {
   0x7c, 0x00, 0xfe, 0x00, 0x82, 0x00, 0x82, 0x00, 0x82, 0x00, 0x82, 0x00,
   0x82, 0x00, 0xba, 0x00, 0x82, 0x00, 0xfe, 0x00 };
