#define battery0_width 10
#define battery0_height 10
static unsigned char battery0_bits[] = {
   0x7c, 0x00, 0xfe, 0x00, 0x82, 0x00, 0x82, 0x00, 0x82, 0x00, 0x82, 0x00,
   0x82, 0x00, 0x82, 0x00, 0x82, 0x00, 0xfe, 0x00 };
