#define cable_width 10
#define cable_height 10
static unsigned char cable_bits[] = {
   0x00, 0x00, 0xff, 0x01, 0x01, 0x01, 0xab, 0x01, 0xab, 0x01, 0x01, 0x01,
   0x82, 0x00, 0x7c, 0x00, 0x00, 0x00, 0x00, 0x00 };
