#define circle_width 10
#define circle_height 10
static unsigned char circle_bits[] = {
   0x00, 0x00, 0x78, 0x00, 0x84, 0x00, 0x02, 0x01, 0x02, 0x01, 0x02, 0x01,
   0x02, 0x01, 0x84, 0x00, 0x78, 0x00, 0x00, 0x00 };
