#define circle_dot_width 10
#define circle_dot_height 10
static unsigned char circle_dot_bits[] = {
   0x00, 0x00, 0x78, 0x00, 0x84, 0x00, 0x32, 0x01, 0x7a, 0x01, 0x7a, 0x01,
   0x32, 0x01, 0x84, 0x00, 0x78, 0x00, 0x00, 0x00 };
