#define clock_width 10
#define clock_height 10
static unsigned char clock_bits[] = {
   0xfc, 0x00, 0x02, 0x01, 0x11, 0x02, 0x11, 0x02, 0x11, 0x02, 0xf1, 0x02,
   0x01, 0x02, 0x01, 0x02, 0x02, 0x01, 0xfc, 0x00 };
