#define net0_width 10
#define net0_height 10
static unsigned char net0_bits[] = {
   0x00, 0x00, 0x00, 0x00, 0x00, 0x00, 0x00, 0x00, 0x00, 0x00, 0x00, 0x00,
   0x00, 0x00, 0x78, 0x00, 0x30, 0x00, 0x30, 0x00 };
