#define net1_width 10
#define net1_height 10
static unsigned char net1_bits[] = {
   0x00, 0x00, 0x00, 0x00, 0x00, 0x00, 0x00, 0x00, 0x30, 0x00, 0x48, 0x00,
   0x84, 0x00, 0x78, 0x00, 0x30, 0x00, 0x30, 0x00 };
