#define net2_width 10
#define net2_height 10
static unsigned char net2_bits[] = {
   0x00, 0x00, 0x00, 0x00, 0x78, 0x00, 0x84, 0x00, 0x32, 0x01, 0x48, 0x00,
   0x84, 0x00, 0x78, 0x00, 0x30, 0x00, 0x30, 0x00 };
