#define net3_width 10
#define net3_height 10
static unsigned char net3_bits[] = {
   0xfc, 0x00, 0x02, 0x01, 0x79, 0x02, 0x84, 0x00, 0x32, 0x01, 0x48, 0x00,
   0x84, 0x00, 0x78, 0x00, 0x30, 0x00, 0x30, 0x00 };
