#define vol0_width 10
#define vol0_height 10
static unsigned char vol0_bits[] = {
   0x00, 0x00, 0x00, 0x00, 0x04, 0x00, 0x06, 0x00, 0x07, 0x00, 0x07, 0x00,
   0x06, 0x00, 0x04, 0x00, 0x00, 0x00, 0x00, 0x00 };
