#define vol1_width 10
#define vol1_height 10
static unsigned char vol1_bits[] = {
   0x00, 0x00, 0x00, 0x00, 0x04, 0x00, 0x16, 0x00, 0x27, 0x00, 0x27, 0x00,
   0x16, 0x00, 0x04, 0x00, 0x00, 0x00, 0x00, 0x00 };
