#define vol2_width 10
#define vol2_height 10
static unsigned char vol2_bits[] = {
   0x00, 0x00, 0x00, 0x00, 0x44, 0x00, 0x96, 0x00, 0xa7, 0x00, 0xa7, 0x00,
   0x96, 0x00, 0x44, 0x00, 0x00, 0x00, 0x00, 0x00 };
