#define vol3_width 10
#define vol3_height 10
static unsigned char vol3_bits[] = {
   0x80, 0x00, 0x00, 0x01, 0x44, 0x02, 0x96, 0x02, 0xa7, 0x02, 0xa7, 0x02,
   0x96, 0x02, 0x44, 0x02, 0x00, 0x01, 0x80, 0x00 };
