#define volm_width 10
#define volm_height 10
static unsigned char volm_bits[] = {
   0x00, 0x00, 0x20, 0x00, 0x30, 0x00, 0x30, 0x00, 0x24, 0x00, 0x0c, 0x00,
   0x18, 0x00, 0x30, 0x00, 0x20, 0x00, 0x00, 0x00 };
